<?xml version="1.0" encoding="utf-8"?>
<!-- Svg Vector Icons : http://www.onlinewebfonts.com/icon -->
<!DOCTYPE svg PUBLIC "-//W3C//DTD SVG 1.1//EN" "http://www.w3.org/Graphics/SVG/1.1/DTD/svg11.dtd">
<svg version="1.1" xmlns="http://www.w3.org/2000/svg" xmlns:xlink="http://www.w3.org/1999/xlink" x="0px" y="0px" viewBox="0 0 1000 1000" enable-background="new 0 0 1000 1000" xml:space="preserve">
<metadata> Svg Vector Icons : http://www.onlinewebfonts.com/icon </metadata>
<g><g transform="translate(0.000000,511.000000) scale(0.100000,-0.100000)"><path d="M3251.4,4074.9c-38.4-29.9-89.7-196.4-256.2-815.6L2788.1,2480l-1003.5-10.7l-1001.4-10.7L638,2390.3c-198.6-93.9-360.8-254.1-459-452.6l-79-160.1V-712v-2487.4l70.5-143c85.4-175.1,219.9-326.7,369.4-416.3c241.3-143-55.5-134.5,4460.2-134.5c4477.3,0,4218.9-6.4,4441,121.7c151.6,89.7,305.3,258.3,386.4,422.8l72.6,149.5V-712v2487.4l-68.3,145.2c-93.9,198.6-254.1,360.8-452.6,459l-160.1,79l-1003.5,10.7L7211.9,2480l-207.1,779.3c-166.6,623.4-217.8,785.7-254.1,815.6c-44.8,36.3-149.5,38.4-1750.8,38.4C3407.2,4113.3,3294.1,4111.2,3251.4,4074.9z M6708.1,2988.1c111-418.5,217.8-781.4,239.1-804.9c34.2-44.8,55.5-44.8,1120.9-55.5c1044-10.7,1088.9-12.8,1180.7-55.5c115.3-53.4,241.3-185.7,279.7-298.9c25.6-68.3,29.9-506,29.9-2495.9c0-2165-4.3-2421.2-34.2-2487.4c-55.5-119.6-149.5-215.6-264.8-269l-106.7-51.3H5000H847.3L740.5-3479c-115.3,53.4-209.2,149.5-264.7,269c-29.9,66.2-34.2,322.4-34.2,2487.4c0,1989.9,4.3,2427.6,29.9,2495.9c38.4,113.2,164.4,245.5,279.7,298.9c91.8,42.7,136.6,44.8,1180.7,55.5c1065.4,10.7,1086.8,10.7,1120.9,55.5c21.3,23.5,128.1,386.5,239.1,804.9l200.7,762.2H5000h1507.4L6708.1,2988.1z"/><path d="M3911.1,3205.9v-181.5H5000h1088.9v181.5v181.5H5000H3911.1V3205.9z"/><path d="M4605,1709.2c-753.7-134.5-1413.4-642.7-1742.2-1340.8c-162.3-348-249.8-792.1-222-1131.6c87.5-1069.7,866.8-1953.6,1910.9-2169.2c292.5-61.9,725.9-51.2,1003.5,21.3c975.7,256.2,1682.4,1073.9,1795.6,2077.4C7423.3-184.6,7162.8,534.9,6676,1026C6123,1585.4,5345.9,1841.6,4605,1709.2z M5247.7,1371.9c544.5-42.7,1108.1-384.3,1426.3-862.6c427-644.8,441.9-1537.2,34.2-2194.9c-205-335.2-474-572.2-834.8-743c-234.9-111-380.1-151.6-664-185.7c-382.2-44.8-760.1,25.6-1138,213.5C3426.4-2080.5,3033.6-1461.3,2999.4-712c-42.7,945.8,527.4,1759.3,1413.4,2017.6c181.5,51.2,510.3,96.1,629.8,83.3C5072.6,1384.7,5164.4,1378.3,5247.7,1371.9z"/><path d="M4882.6,601.1l-53.4-51.2V56.7v-491.1h-467.6c-258.3,0-493.2-8.6-525.2-21.3c-64.1-23.5-115.3-128.1-100.4-205c4.3-27.8,34.2-70.5,64.1-93.9c49.1-40.6,87.5-42.7,540.2-42.7h488.9v-491.1v-493.2l53.4-51.3c32-34.1,76.9-53.4,117.4-53.4c40.6,0,85.4,19.2,117.4,53.4l53.4,51.3v493.2v491.1h488.9c461.2,0,491.1,2.1,544.4,44.8c68.3,55.5,76.9,179.4,14.9,256.2c-40.6,51.3-44.8,51.3-544.4,57.6l-503.9,6.4V58.8v491.1l-53.4,51.2c-32,34.2-76.9,53.4-117.4,53.4C4959.4,654.5,4914.6,635.3,4882.6,601.1z"/></g></g>
</svg>